<svg width="5651" height="5825" viewBox="0 0 5651 5825" fill="none" xmlns="http://www.w3.org/2000/svg">
<g id="eiffel 1" clip-path="url(#clip0_423_375)">
<path id="Vector" d="M5867.7 3821.16L5235.38 4169.64L5795.01 3682.36C5704.06 3517.04 5601.88 3360.47 5489.45 3214.15L2747.13 4007.86L5224.22 2907.55C5111.03 2791.25 4990.82 2684.55 4864.51 2588.28L685.864 3372.04C242.198 4018.07 0.341559 4820.56 0 5647.77H6290C6289.75 5006.23 6144.07 4376.14 5867.7 3821.16V3821.16Z" fill="#F2F2F2"/>
<path id="Vector_2" d="M4522.52 2362.03C4093.5 2118.37 3622.33 1992.11 3145 1992.9C2173.51 1992.9 1304.95 2505.85 728.053 3311.8C1715.94 3059.75 3435.93 2623.44 4522.52 2362.03Z" fill="#F2F2F2"/>
<path id="Vector_3" d="M4989.86 5565.96C4903.05 5548.84 4819.56 5534.13 4739.4 5521.84L4771.09 5450.29C4760.4 5445.97 4713.46 5486.94 4713.46 5486.94L4755.04 5279.26C4701.3 5286.81 4673.98 5498.86 4673.98 5498.86L4613.93 5427.17L4643 5507.77C4432.12 5478.09 4219.96 5462.54 4007.55 5461.2L4034.67 5399.97C4023.99 5395.65 3977.04 5436.62 3977.04 5436.62L4018.63 5228.94C3964.88 5236.48 3937.56 5448.54 3937.56 5448.54L3877.51 5376.85L3908.3 5462.22C3786.19 5464.57 3664.27 5474.21 3543.01 5491.11C3570.44 5395.72 3663.64 5304.99 3663.64 5304.99C3592.46 5329.64 3555.13 5370.94 3535.62 5409.45C3533.88 5212.62 3561.99 5016.97 3618.65 4831.52C3618.65 4831.52 3471.54 5204.29 3490.31 5454.51L3492.55 5498.94C3367.84 5519.73 3305.13 5541.37 3305.13 5541.37L4989.86 5565.96Z" fill="#3F3D56"/>
<path id="Vector_4" d="M3043.74 5552.62C2956.93 5535.49 2873.44 5520.79 2793.28 5508.5L2824.97 5436.95C2814.29 5432.63 2767.34 5473.6 2767.34 5473.6L2808.93 5265.92C2755.18 5273.47 2727.86 5485.52 2727.86 5485.52L2667.81 5413.83L2696.88 5494.43C2486.01 5464.75 2273.84 5449.2 2061.43 5447.86L2088.55 5386.63C2077.87 5382.3 2030.92 5423.28 2030.92 5423.28L2072.51 5215.59C2018.76 5223.14 1991.44 5435.2 1991.44 5435.2L1931.39 5363.5L1962.18 5448.88C1840.07 5451.22 1718.15 5460.87 1596.89 5477.77C1624.32 5382.37 1717.52 5291.65 1717.52 5291.65C1646.35 5316.29 1609.01 5357.6 1589.5 5396.11C1587.76 5199.27 1615.87 5003.63 1672.53 4818.17C1672.53 4818.17 1525.42 5190.95 1544.19 5441.17L1546.44 5485.6C1421.72 5506.39 1359.02 5528.03 1359.02 5528.03L3043.74 5552.62Z" fill="#3F3D56"/>
<path id="Vector_5" d="M5146.98 5633.06C5146.98 5746.78 4239.36 6089 3119.76 6089C2000.15 6089 1092.53 5746.78 1092.53 5633.06C1092.53 5519.34 2000.15 5677.18 3119.76 5677.18C4239.36 5677.18 5146.98 5519.34 5146.98 5633.06Z" fill="#3F3D56"/>
<path id="Vector_6" opacity="0.1" d="M5146.98 5633.06C5146.98 5746.78 4239.36 6089 3119.76 6089C2000.15 6089 1092.53 5746.78 1092.53 5633.06C1092.53 5519.34 2000.15 5677.18 3119.76 5677.18C4239.36 5677.18 5146.98 5519.34 5146.98 5633.06Z" fill="black"/>
<path id="Vector_7" d="M3119.76 5838.97C4239.36 5838.97 5146.98 5746.78 5146.98 5633.06C5146.98 5519.34 4239.36 5427.15 3119.76 5427.15C2000.15 5427.15 1092.53 5519.34 1092.53 5633.06C1092.53 5746.78 2000.15 5838.97 3119.76 5838.97Z" fill="#3F3D56"/>
<path id="Vector_8" opacity="0.1" d="M3236.59 5699.25C4183.55 5699.25 4951.21 5646.57 4951.21 5581.58C4951.21 5516.6 4183.55 5463.92 3236.59 5463.92C2289.64 5463.92 1521.98 5516.6 1521.98 5581.58C1521.98 5646.57 2289.64 5699.25 3236.59 5699.25Z" fill="black"/>
<path id="Vector_9" d="M2620.61 4827.19C2623.44 5295.68 2385.25 5461.19 2090.24 5463.61C2083.39 5463.67 2076.57 5463.64 2069.78 5463.51C2056.11 5463.28 2042.57 5462.67 2029.18 5461.67C1762.78 5441.9 1554.86 5271.64 1552.23 4835.95C1549.5 4385.07 2040.94 3812 2077.8 3769.62C2077.83 3769.62 2077.83 3769.62 2077.87 3769.58C2079.27 3767.97 2079.98 3767.16 2079.98 3767.16C2079.98 3767.16 2617.78 4358.74 2620.61 4827.19Z" fill="#6C63FF"/>
<path id="Vector_10" d="M2070.37 5392.11L2263.82 5072.64L2070.08 5427.01L2069.78 5463.51C2056.11 5463.28 2042.57 5462.67 2029.18 5461.67L2047.39 4992.82L2047.21 4989.2L2047.56 4988.5L2049.3 4944.2L1850.8 4592.17L2049.68 4911.02L2050.23 4920.41L2063.99 4566.17L1893.69 4202.11L2065.68 4503.93L2077.8 3769.62L2077.85 3767.18L2077.87 3769.58L2078.61 4348.58L2244.54 4117.68L2078.19 4398.45L2075.68 4715.55L2230.14 4409.99L2075.34 4762.17L2073.95 4938.5L2298.21 4513.09L2073.44 5000.01L2070.37 5392.11Z" fill="#3F3D56"/>
<path id="Vector_11" d="M3959.07 5511.44H4458.45L4292.57 5199.25L4175.71 5187.91L4244.18 5108.18L3826.88 4322.78V4194.51H3770.76L3430.31 3245.29L3489.06 3151.23L3430.31 3099.92H3397.7L3207.1 1086.04H3235.7L3279.76 940.665V658.465H3221.01V521.641H3147.57V256.545H3132.89V0H3118.2V256.545H3096.17V521.641H3030.07V658.465H2963.98V940.665L3015.38 1086.04H3045.09L2902.16 3099.92H2901.55L2806.08 3134.12L2857.49 3236.74L2861.16 3245.29H2857.49L2571.69 4194.51H2497.64L2504.99 4322.78L1888.1 5511.44H2394.83V5374.62H2365.45C2365.45 5374.62 2460.92 4622.08 3151.24 4553.67C3856.25 4536.57 3988.44 5357.51 3988.44 5357.51H3959.07V5511.44ZM4303 5233.52L4322.59 5313.33L4234.46 5244.92L4303 5233.52ZM4195.29 5256.32L4303 5336.13L4185.5 5324.73L4195.29 5256.32ZM4068 5336.13L4136.54 5244.92L4165.92 5336.13H4068ZM3953.3 4831.6L3978.48 4900.01L3869.37 4831.6H3953.3ZM3920.77 4787.62L3929.17 4728.98L4021.49 4797.39L3920.77 4787.62ZM4077.79 5096.69L4107.17 5176.51L3979.87 5096.69H4077.79ZM3944.9 5036.83L4003.65 4958.65L4028.83 5036.83H3944.9ZM4045.62 5027.06L4054.01 4968.42L4146.34 5036.83L4045.62 5027.06ZM4146.34 5187.91L4107.17 5096.69H4214.88L4146.34 5187.91ZM4163.12 5017.29L4087.58 4958.65L4146.34 4948.87L4163.12 5017.29ZM4137.94 4919.55L4037.23 4909.78L4095.98 4841.37L4137.94 4919.55ZM4012.05 4909.78L3978.48 4831.6H4070.8L4012.05 4909.78ZM4038.28 4777.84L3962.74 4719.2L4021.49 4709.43L4038.28 4777.84ZM4013.1 4680.11L3912.38 4670.34L3971.13 4601.93L4013.1 4680.11ZM3887.2 4670.34L3853.63 4592.15H3945.95L3887.2 4670.34ZM3773.9 4539.62L3782.29 4480.98L3874.61 4549.4L3773.9 4539.62ZM3853.63 4660.57L3744.52 4592.15H3828.45L3853.63 4660.57ZM3891.4 4529.85L3815.86 4471.21L3874.61 4461.44L3891.4 4529.85ZM3866.22 4432.12L3765.5 4422.35L3824.25 4353.93L3866.22 4432.12ZM3799.08 4344.16L3740.32 4422.35L3706.75 4344.16H3799.08ZM3706.75 4412.57L3597.65 4344.16H3681.58L3706.75 4412.57ZM2882 4194.51L3033.74 3407.77H3268.75L3469.6 4194.51H2882ZM3398.31 4421.12L3289.2 4352.71H3373.13L3398.31 4421.12ZM3205.27 4404.02L3175.9 4443.11L3159.11 4404.02H3205.27ZM3159.11 4438.23L3104.56 4404.02H3146.52L3159.11 4438.23ZM2795.07 3950.79L2905.23 3873.83L2875.85 4019.2L2795.07 3950.79ZM2853.82 4036.31H2677.57L2773.04 3967.89L2853.82 4036.31ZM3124.13 1307.72L3093.06 1343.9L3061.99 1307.72H3124.13ZM3061.99 1291.93L3093.06 1255.75L3124.13 1291.93H3061.99ZM3124.13 1394.55H3061.99L3093.06 1358.37L3124.13 1394.55ZM3099.27 1351.14L3130.34 1314.96V1387.32L3099.27 1351.14ZM3129.21 1428.1V1513.62L3092.49 1470.86L3129.21 1428.1ZM3099.27 1248.52L3130.34 1212.34V1284.7L3099.27 1248.52ZM3107.18 1154.45L3131.66 1125.95V1182.96L3107.18 1154.45ZM3126.77 1188.66H3077.81L3102.29 1160.15L3126.77 1188.66ZM3102.29 1148.75L3077.81 1120.25H3126.77L3102.29 1148.75ZM3097.39 1154.45L3072.91 1182.96V1125.95L3097.39 1154.45ZM3124.13 1205.1L3093.06 1241.28L3061.99 1205.1H3124.13ZM3086.84 1248.52L3055.77 1284.7V1212.34L3086.84 1248.52ZM3086.84 1351.14L3055.77 1387.32V1314.96L3086.84 1351.14ZM3121.87 1419.55L3085.15 1462.31L3048.43 1419.55H3121.87ZM3121.87 1522.17H3048.43L3085.15 1479.41L3121.87 1522.17ZM3129.21 1556.37V1641.89L3092.49 1599.13L3129.21 1556.37ZM3121.87 1547.82L3085.15 1590.58L3048.43 1547.82H3121.87ZM3121.87 1650.44H3048.43L3085.15 1607.68L3121.87 1650.44ZM3127.52 1691.88V1797.13L3082.33 1744.51L3127.52 1691.88ZM3118.48 1807.66H3028.09L3073.29 1755.03L3118.48 1807.66ZM3127.52 1845.81V1951.06L3082.33 1898.43L3127.52 1845.81ZM3118.48 1835.28L3073.29 1887.91L3028.09 1835.28H3118.48ZM3118.48 1961.58H3028.09L3073.29 1908.96L3118.48 1961.58ZM3125.54 2005.33V2133.6L3070.46 2069.46L3125.54 2005.33ZM3114.53 2146.43H3004.37L3059.45 2082.29L3114.53 2146.43ZM3125.54 2193.46V2321.73L3070.46 2257.6L3125.54 2193.46ZM3114.53 2180.63L3059.45 2244.77L3004.37 2180.63H3114.53ZM3114.53 2334.56H3004.37L3059.45 2270.42L3114.53 2334.56ZM3123.56 2387.18V2538.48L3058.6 2462.83L3123.56 2387.18ZM3110.57 2553.61H2980.64L3045.61 2477.96L3110.57 2553.61ZM3121.87 2633.86V2804.89L3048.43 2719.38L3121.87 2633.86ZM3107.18 2821.99H2960.3L3033.74 2736.48L3107.18 2821.99ZM3120.74 2892.38V3076.57L3041.65 2984.47L3120.74 2892.38ZM3104.92 2873.96L3025.83 2966.05L2946.75 2873.96H3104.92ZM3104.92 3094.98H2946.75L3025.83 3002.89L3104.92 3094.98ZM2927.26 3634.39H2780.38L2868.51 3574.53L2927.26 3634.39ZM2883.19 3557.42L2978.66 3489.01L2956.63 3642.94L2883.19 3557.42ZM2941.95 3677.14L2919.91 3822.52L2861.16 3745.56L2941.95 3677.14ZM2905.23 3660.04L2831.79 3728.45L2780.38 3660.04H2905.23ZM2897.88 3831.07H2743.66L2824.44 3762.66L2897.88 3831.07ZM2948.24 4344.16L2914.67 4422.35L2855.92 4344.16H2948.24ZM2973.42 4344.16H3057.35L2948.24 4412.57L2973.42 4344.16ZM3526.18 3931.2L3449.58 4005.85L3411.79 3863.13L3526.18 3931.2ZM3394.14 3813.1L3363.68 3669.8L3448.26 3731.67L3394.14 3813.1ZM3485.9 3745.83L3570.48 3807.69L3416.62 3819.89L3485.9 3745.83ZM3476.57 3712.28L3399.31 3649.84L3523.87 3639.96L3476.57 3712.28ZM3375.84 3625.98L3430.96 3561.61L3522.37 3614.36L3375.84 3625.98ZM3347.03 3636.84L3316.07 3485.01L3415.31 3545.71L3347.03 3636.84ZM3168.19 3094.98L3247.28 3002.89L3326.37 3094.98H3168.19ZM3152.37 3076.57V2892.38L3231.46 2984.47L3152.37 3076.57ZM3168.19 2873.96H3326.37L3247.28 2966.05L3168.19 2873.96ZM3165.93 2821.99L3239.37 2736.48L3312.81 2821.99L3165.93 2821.99ZM3151.24 2804.89V2633.86L3224.68 2719.38L3151.24 2804.89ZM3149.55 2538.48V2387.18L3214.51 2462.83L3149.55 2538.48ZM3227.51 2477.96L3292.47 2553.61H3162.54L3227.51 2477.96ZM3173.84 1351.14L3142.77 1387.32V1314.96L3173.84 1351.14ZM3148.99 1307.72H3211.13L3180.06 1343.9L3148.99 1307.72ZM3143.9 1556.37L3180.62 1599.13L3143.9 1641.89V1556.37ZM3151.24 1547.82H3224.68L3187.96 1590.58L3151.24 1547.82ZM3145.6 1845.81L3190.79 1898.43L3145.6 1951.06V1845.81ZM3154.63 1835.28H3245.02L3199.83 1887.91L3154.63 1835.28ZM3147.57 2193.46L3202.65 2257.6L3147.57 2321.73V2193.46ZM3158.59 2180.63H3268.75L3213.67 2244.77L3158.59 2180.63ZM3213.67 2270.42L3268.75 2334.56H3158.59L3213.67 2270.42ZM3224.68 2257.6L3279.76 2193.46V2321.73L3224.68 2257.6ZM3158.59 2146.43L3213.67 2082.29L3268.75 2146.43H3158.59ZM3147.57 2133.6V2005.33L3202.65 2069.46L3147.57 2133.6ZM3199.83 1908.96L3245.02 1961.58H3154.63L3199.83 1908.96ZM3208.87 1898.43L3254.06 1845.81V1951.06L3208.87 1898.43ZM3154.63 1807.66L3199.83 1755.03L3245.02 1807.66H3154.63ZM3145.6 1797.13V1691.88L3190.79 1744.51L3145.6 1797.13ZM3187.96 1607.68L3224.68 1650.44H3151.24L3187.96 1607.68ZM3195.31 1599.13L3232.03 1556.37V1641.89L3195.31 1599.13ZM3151.24 1522.17L3187.96 1479.41L3224.68 1522.17H3151.24ZM3143.9 1513.62V1428.1L3180.62 1470.86L3143.9 1513.62ZM3180.06 1358.37L3211.13 1394.55H3148.99L3180.06 1358.37ZM3186.27 1351.14L3217.34 1314.96V1387.32L3186.27 1351.14ZM3148.99 1291.93L3180.06 1255.75L3211.13 1291.93H3148.99ZM3142.77 1284.7V1212.34L3173.84 1248.52L3142.77 1284.7ZM3175.72 1154.45L3200.2 1125.95V1182.96L3175.72 1154.45ZM3195.31 1188.66H3146.35L3170.83 1160.15L3195.31 1188.66ZM3170.83 1148.75L3146.35 1120.25H3195.31L3170.83 1148.75ZM3165.93 1154.45L3141.45 1182.96V1125.95L3165.93 1154.45ZM3490.64 4352.71L3431.88 4430.9L3398.31 4352.71H3490.64ZM3472.56 4021.17L3549.16 3946.52L3648.4 4007.22L3472.56 4021.17ZM3661.56 3980.46L3561.82 3911.23L3617.44 3855.39L3661.56 3980.46ZM3538.84 3895.91L3447.42 3843.16L3593.96 3831.54L3538.84 3895.91ZM3583.64 3780.93L3499.55 3727.6L3546.85 3655.28L3583.64 3780.93ZM3528.2 3588.19L3444.12 3534.86L3491.91 3471.07L3528.2 3588.19ZM3483.59 3454.59L3428.96 3527.49L3329.72 3466.79L3483.59 3454.59ZM3342.18 3076.57L3263.1 2984.47L3342.18 2892.38V3076.57ZM3327.5 2804.89L3254.06 2719.38L3327.5 2633.86V2804.89ZM3239.37 2702.27L3165.93 2616.76H3312.81L3239.37 2702.27ZM3305.47 2538.48L3240.5 2462.83L3305.47 2387.18V2538.48ZM3227.51 2447.7L3162.54 2372.05H3292.47L3227.51 2447.7ZM3279.76 2133.6L3224.68 2069.46L3279.76 2005.33V2133.6ZM3213.67 2056.64L3158.59 1992.5H3268.75L3213.67 2056.64ZM3254.06 1797.13L3208.87 1744.51L3254.06 1691.88V1797.13ZM3199.83 1733.98L3154.63 1681.36H3245.02L3199.83 1733.98ZM3232.03 1513.62L3195.31 1470.86L3232.03 1428.1V1513.62ZM3187.96 1462.31L3151.24 1419.55H3224.68L3187.96 1462.31ZM3217.34 1284.7L3186.27 1248.52L3217.34 1212.34V1284.7ZM3180.06 1241.28L3148.99 1205.1H3211.13L3180.06 1241.28ZM3041.09 1428.1L3077.81 1470.86L3041.09 1513.62V1428.1ZM3041.09 1556.37L3077.81 1599.13L3041.09 1641.89V1556.37ZM3118.48 1681.36L3073.29 1733.98L3028.09 1681.36H3118.48ZM3019.06 1691.88L3064.25 1744.51L3019.06 1797.13V1691.88ZM3019.06 1845.81L3064.25 1898.43L3019.06 1951.06V1845.81ZM3114.53 1992.5L3059.45 2056.64L3004.37 1992.5H3114.53ZM2993.35 2005.33L3048.43 2069.46L2993.35 2133.6V2005.33ZM2993.35 2193.46L3048.43 2257.6L2993.35 2321.73V2193.46ZM3110.57 2372.05L3045.61 2447.7L2980.64 2372.05H3110.57ZM2967.65 2387.18L3032.61 2462.83L2967.65 2538.48V2387.18ZM3107.18 2616.76L3033.74 2702.27L2960.3 2616.76H3107.18ZM2945.62 2633.86L3019.06 2719.38L2945.62 2804.89V2633.86ZM2930.93 2892.38L3010.02 2984.47L2930.93 3076.57V2892.38ZM2963.98 3471.91L2868.51 3540.32L2809.76 3471.91L2963.98 3471.91ZM2802.41 3489.01L2853.82 3548.87L2773.04 3608.73L2802.41 3489.01ZM2758.35 3677.14L2809.76 3745.56L2728.97 3805.42L2758.35 3677.14ZM2868.51 3856.73L2780.38 3916.59L2721.63 3856.73H2868.51ZM2699.6 3882.38L2758.35 3933.69L2662.88 4010.65L2699.6 3882.38ZM2741.56 4344.16L2632.45 4412.57L2657.63 4344.16H2741.56ZM2632.45 4344.16L2598.88 4422.35L2540.13 4344.16H2632.45ZM2514.95 4353.93L2573.7 4422.35L2472.99 4432.12L2514.95 4353.93ZM2609.37 4592.15L2500.27 4660.57L2525.44 4592.15H2609.37ZM2464.6 4549.4L2556.92 4480.98L2565.31 4539.62L2464.6 4549.4ZM2464.6 4461.44L2523.35 4471.21L2447.81 4529.85L2464.6 4461.44ZM2500.27 4592.15L2466.69 4670.34L2407.94 4592.15H2500.27ZM2382.76 4601.93L2441.51 4670.34L2340.8 4680.11L2382.76 4601.93ZM2374.02 5096.69L2246.73 5176.51L2276.1 5096.69H2374.02ZM2207.56 5036.83L2299.88 4968.42L2308.28 5027.06L2207.56 5036.83ZM2325.06 5036.83L2350.24 4958.65L2408.99 5036.83H2325.06ZM2484.53 4831.6L2375.42 4900.01L2400.6 4831.6H2484.53ZM2332.41 4797.39L2424.73 4728.98L2433.12 4787.62L2332.41 4797.39ZM2332.41 4709.43L2391.16 4719.2L2315.62 4777.84L2332.41 4709.43ZM2375.42 4831.6L2341.85 4909.78L2283.1 4831.6H2375.42ZM2257.92 4841.37L2316.67 4909.78L2215.95 4919.55L2257.92 4841.37ZM2207.56 4948.87L2266.31 4958.65L2190.77 5017.29L2207.56 4948.87ZM2246.73 5096.69L2207.56 5187.91L2139.02 5096.69H2246.73ZM2050.89 5233.52L2119.43 5244.92L2031.31 5313.33L2050.89 5233.52ZM2050.89 5336.13L2158.6 5256.32L2168.39 5324.73L2050.89 5336.13ZM2060.68 5199.31L2109.64 5108.09L2178.19 5187.91L2060.68 5199.31ZM2187.98 5336.13L2217.35 5244.92L2285.9 5336.13H2187.98ZM2325.06 5324.73L2256.52 5233.52L2374.02 5222.11L2325.06 5324.73ZM2383.81 5187.91H2276.1L2413.19 5108.09L2383.81 5187.91ZM2442.56 5027.06L2383.81 4948.87L2484.53 4939.1L2442.56 5027.06ZM2492.92 4909.78H2400.6L2518.1 4841.37L2492.92 4909.78ZM2449.91 4797.39L2475.09 4719.2L2533.84 4797.39H2449.91ZM2567.41 4787.62L2508.66 4709.43L2609.37 4699.66L2567.41 4787.62ZM2617.77 4670.34H2525.44L2642.95 4601.93L2617.77 4670.34ZM2582.1 4549.4L2607.28 4471.21L2666.03 4549.4H2582.1ZM2699.6 4539.62L2640.85 4461.44L2741.56 4451.67L2699.6 4539.62ZM2657.63 4422.35L2775.14 4353.93L2749.96 4422.35H2657.63ZM2780.38 4461.44L2839.13 4471.21L2763.6 4529.85L2780.38 4461.44ZM2780.38 4549.4L2872.7 4480.99L2881.1 4539.62L2780.38 4549.4ZM2788.77 4432.12L2830.74 4353.93L2889.49 4422.35L2788.77 4432.12ZM2897.88 4549.4L2923.06 4471.21L2981.81 4549.4H2897.88ZM3015.38 4539.62L2956.63 4461.44L3057.35 4451.67L3015.38 4539.62ZM2973.42 4422.35L3090.92 4353.93L3065.74 4422.35H2973.42ZM3087.77 4408.91L3146.52 4443.11H3100.36L3087.77 4408.91ZM3104.56 4457.77L3154.92 4462.66L3125.54 4501.75L3104.56 4457.77ZM3142.33 4506.64L3171.7 4467.55L3184.29 4506.64H3142.33ZM3217.86 4408.91L3238.85 4448L3188.49 4443.11L3217.86 4408.91ZM3192.69 4501.75L3196.88 4472.43L3243.04 4506.64L3192.69 4501.75ZM3213.67 4467.55L3243.04 4462.66L3251.44 4496.87L3213.67 4467.55ZM3255.63 4362.49L3373.13 4430.9H3280.81L3255.63 4362.49ZM3289.2 4460.22L3389.92 4469.99L3331.17 4548.17L3289.2 4460.22ZM3364.74 4557.95L3423.49 4479.76L3448.67 4557.95H3364.74ZM3515.81 4362.49L3557.78 4440.67L3457.06 4430.9L3515.81 4362.49ZM3465.46 4548.18L3473.85 4489.54L3566.17 4557.95L3465.46 4548.18ZM3507.42 4479.76L3566.17 4469.99L3582.96 4538.4L3507.42 4479.76ZM3564.07 4353.93L3681.58 4422.35H3589.25L3564.07 4353.93ZM3597.65 4451.67L3698.36 4461.44L3639.61 4539.62L3597.65 4451.67ZM3731.93 4471.21L3757.11 4549.4H3673.18L3731.93 4471.21ZM3736.13 4670.34L3710.95 4601.93L3828.45 4670.34H3736.13ZM3744.52 4699.66L3845.24 4709.43L3786.49 4787.62L3744.52 4699.66ZM3878.81 4719.21L3903.99 4797.39H3820.06L3878.81 4719.21ZM3835.8 4841.37L3953.3 4909.78H3860.98L3835.8 4841.37ZM3869.37 4939.1L3970.08 4948.88L3911.33 5027.06L3869.37 4939.1ZM3940.71 5108.09L4077.79 5187.91H3970.08L3940.71 5108.09ZM3979.87 5222.11L4097.38 5233.52L4028.83 5324.73L3979.87 5222.11Z" fill="#3F3D56"/>
<path id="Vector_12" opacity="0.1" d="M3088.82 692.671H2993.35V743.98H3088.82V692.671Z" fill="black"/>
<path id="Vector_13" opacity="0.1" d="M3243.04 692.671H3147.57V743.98H3243.04V692.671Z" fill="black"/>
<path id="Vector_14" d="M4894.86 5389.95C4815.7 5444.3 4784.54 5553.56 4784.54 5553.56C4784.54 5553.56 4881.73 5574.69 4960.88 5520.34C5040.04 5465.99 5071.2 5356.73 5071.2 5356.73C5071.2 5356.73 4974.02 5335.6 4894.86 5389.95Z" fill="#3F3D56"/>
<path id="Vector_15" d="M4922.6 5423.65C4878.27 5517.38 4785.4 5556.86 4785.4 5556.86C4785.4 5556.86 4764.4 5444.36 4808.73 5350.63C4853.06 5256.9 4945.92 5217.42 4945.92 5217.42C4945.92 5217.42 4966.92 5329.92 4922.6 5423.65Z" fill="#6C63FF"/>
</g>
<defs>
<clipPath id="clip0_423_375">
<rect width="6290" height="6089" fill="white"/>
</clipPath>
</defs>
</svg>
